<?xml version="1.0" standalone="no"?>
<!DOCTYPE svg PUBLIC "-//W3C//DTD SVG 20010904//EN"
 "http://www.w3.org/TR/2001/REC-SVG-20010904/DTD/svg10.dtd">
<svg version="1.0" xmlns="http://www.w3.org/2000/svg"
 width="476.000000pt" height="170.000000pt" viewBox="0 0 476.000000 170.000000"
 preserveAspectRatio="xMidYMid meet">

<g transform="translate(0.000000,170.000000) scale(0.100000,-0.100000)"
fill="#000000" stroke="none">
<path d="M615 1609 c-49 -16 -95 -35 -102 -42 -8 -9 -10 -35 -4 -97 7 -71 6
-87 -7 -95 -8 -5 -45 -32 -81 -59 -58 -43 -67 -47 -86 -35 -11 7 -44 26 -74
43 l-54 29 -29 -34 c-41 -49 -118 -155 -118 -164 0 -4 22 -39 50 -79 l50 -72
0 -222 c0 -188 2 -222 15 -222 21 0 214 -20 252 -26 31 -4 31 -6 38 -74 l7
-69 41 -5 c23 -3 77 -8 119 -11 87 -6 78 -14 93 80 4 22 12 43 18 47 16 10
298 10 314 0 6 -4 14 -25 18 -47 15 -94 6 -86 93 -80 42 3 96 8 118 11 l41 5
7 69 c7 68 8 69 39 74 30 5 240 26 259 26 4 0 8 100 8 222 l0 222 50 72 c28
40 50 75 50 79 0 9 -77 115 -118 164 l-29 34 -54 -29 c-30 -17 -63 -36 -75
-43 -19 -13 -27 -9 -86 35 -36 27 -72 54 -80 59 -12 8 -14 25 -8 95 4 47 5 88
3 93 -11 19 -197 82 -218 73 -8 -3 -31 -38 -51 -78 l-36 -73 -88 0 -87 0 -39
75 c-22 41 -46 76 -54 77 -8 2 -55 -11 -105 -28z m-42 -633 c159 -68 116 -306
-57 -308 -173 -3 -228 232 -72 303 49 22 86 24 129 5z m787 -8 c51 -26 90 -84
90 -136 0 -102 -98 -182 -199 -161 -144 30 -170 233 -38 298 54 27 92 27 147
-1z m-422 -90 c8 -8 12 -47 12 -110 0 -95 -1 -99 -25 -110 -19 -8 -31 -8 -50
0 -24 11 -25 15 -25 110 0 63 4 102 12 110 15 15 61 15 76 0z"/>
<path d="M449 893 c-13 -16 -12 -17 4 -4 9 7 17 15 17 17 0 8 -8 3 -21 -13z"/>
<path d="M632 820 c0 -14 2 -19 5 -12 2 6 2 18 0 25 -3 6 -5 1 -5 -13z"/>
<path d="M1162 815 c0 -16 2 -22 5 -12 2 9 2 23 0 30 -3 6 -5 -1 -5 -18z"/>
<path d="M2103 1130 c-135 -28 -213 -137 -213 -299 0 -136 49 -233 144 -284
35 -19 57 -22 146 -22 62 0 120 5 143 13 l37 14 0 139 0 139 -26 10 c-28 11
-107 13 -141 4 -20 -6 -23 -13 -23 -55 0 -46 2 -49 26 -49 21 0 25 -4 22 -22
-2 -15 -11 -24 -26 -26 -86 -12 -149 104 -108 201 28 66 79 86 153 61 l47 -16
23 26 c26 31 48 98 39 121 -13 36 -156 62 -243 45z"/>
<path d="M2627 1130 c-149 -37 -213 -139 -205 -329 3 -83 8 -103 32 -149 49
-87 128 -132 235 -132 75 0 122 14 173 53 79 60 114 177 97 319 -18 145 -100
228 -239 241 -30 3 -72 2 -93 -3z m123 -195 c29 -30 39 -123 20 -180 -25 -77
-125 -83 -156 -9 -26 62 -15 154 23 196 25 28 84 23 113 -7z"/>
<path d="M3757 1130 c-149 -37 -213 -139 -205 -329 3 -83 8 -103 32 -149 53
-96 137 -138 261 -130 116 8 193 64 230 169 17 46 22 192 9 245 -18 76 -79
150 -144 178 -47 19 -137 27 -183 16z m130 -209 c45 -67 24 -196 -35 -220 -69
-29 -122 26 -122 127 0 89 33 134 94 130 33 -2 44 -9 63 -37z"/>
<path d="M3050 1120 c-13 -8 -15 -53 -18 -286 -2 -199 0 -280 9 -290 9 -11 41
-14 138 -14 119 0 131 2 182 28 70 35 105 85 125 182 29 137 -4 277 -78 333
-18 14 -60 33 -93 42 -65 17 -241 20 -265 5z m214 -171 c33 -16 49 -66 44
-140 -5 -73 -31 -113 -76 -117 l-32 -3 0 135 c0 128 1 136 20 136 10 0 30 -5
44 -11z"/>
<path d="M4120 1111 c-11 -22 -13 -83 -4 -118 6 -21 13 -23 65 -23 l59 0 0
-219 c0 -247 -6 -231 85 -231 91 0 85 -16 85 231 l0 219 54 0 c30 0 58 4 61
10 8 13 9 103 0 129 -6 20 -12 21 -200 21 -182 0 -195 -1 -205 -19z"/>
<path d="M162 436 c3 -46 13 -86 27 -115 85 -166 344 -261 711 -261 368 0 625
95 711 261 14 29 24 69 27 115 l4 70 -123 -12 c-68 -7 -125 -13 -125 -13 -1
-1 -5 -32 -8 -71 -4 -38 -8 -71 -9 -71 -7 -5 -314 -25 -324 -21 -7 2 -15 20
-18 40 -4 21 -9 49 -11 65 l-6 27 -118 0 -119 0 -6 -37 c-13 -80 -17 -91 -28
-96 -16 -6 -314 16 -321 24 -4 3 -9 36 -13 73 -3 36 -6 66 -7 67 -1 0 -57 6
-125 13 l-123 12 4 -70z"/>
</g>
</svg>
